<svg width="25" height="30" viewBox="0 0 25 30" fill="none" xmlns="http://www.w3.org/2000/svg">
<path d="M21.1124 26.9583V19.0351H23.7533V29.5996H0V19.0351H2.64091V26.9583H21.1124" fill="#BCBBBC"/>
<path d="M5.28485 24.317H18.4894V21.6761H5.28485V24.317ZM17.1194 2.93085e-05L15.0004 1.57607L22.881 12.1713L25 10.5952L17.1194 2.93085e-05ZM10.5693 6.24648L20.7159 14.6969L22.4059 12.6675L12.2594 4.21713L10.5693 6.24648ZM7.25687 12.1189L19.227 17.6937L20.3419 15.2997L8.3718 9.7249L7.25687 12.1189ZM5.54707 18.3063L18.4694 21.0222L19.0126 18.4377L6.09023 15.7218L5.54707 18.3063" fill="#5E9E68"/>
</svg>
