<svg width="227" height="30" viewBox="0 0 227 30" fill="none" xmlns="http://www.w3.org/2000/svg">
<path d="M21.1124 26.9583V19.0351H23.7533V29.5996H0V19.0351H2.64091V26.9583H21.1124" fill="#BCBBBC"/>
<path d="M5.28485 24.317H18.4894V21.6761H5.28485V24.317ZM17.1194 2.93085e-05L15.0004 1.57607L22.881 12.1713L25 10.5952L17.1194 2.93085e-05ZM10.5693 6.24648L20.7159 14.6969L22.4059 12.6675L12.2594 4.21713L10.5693 6.24648ZM7.25687 12.1189L19.227 17.6937L20.3419 15.2997L8.3718 9.7249L7.25687 12.1189ZM5.54707 18.3063L18.4694 21.0222L19.0126 18.4377L6.09023 15.7218L5.54707 18.3063" fill="#5E9E68"/>
<path d="M48.7501 13.8154V15.042H42.5938V13.8154H48.7501ZM42.8282 8.9248V20.2998H41.3204V8.9248H42.8282ZM50.0626 8.9248V20.2998H48.5626V8.9248H50.0626ZM52.9407 16.167V15.9873C52.9407 15.3779 53.0292 14.8128 53.2063 14.292C53.3834 13.766 53.6386 13.3102 53.9719 12.9248C54.3053 12.5342 54.7089 12.2321 55.1829 12.0186C55.6568 11.7998 56.1881 11.6904 56.7766 11.6904C57.3704 11.6904 57.9042 11.7998 58.3782 12.0186C58.8574 12.2321 59.2636 12.5342 59.5969 12.9248C59.9355 13.3102 60.1933 13.766 60.3704 14.292C60.5475 14.8128 60.636 15.3779 60.636 15.9873V16.167C60.636 16.7764 60.5475 17.3415 60.3704 17.8623C60.1933 18.3831 59.9355 18.8389 59.5969 19.2295C59.2636 19.6149 58.86 19.917 58.386 20.1357C57.9172 20.3493 57.386 20.4561 56.7922 20.4561C56.1985 20.4561 55.6646 20.3493 55.1907 20.1357C54.7167 19.917 54.3105 19.6149 53.9719 19.2295C53.6386 18.8389 53.3834 18.3831 53.2063 17.8623C53.0292 17.3415 52.9407 16.7764 52.9407 16.167ZM54.386 15.9873V16.167C54.386 16.5889 54.4355 16.9873 54.5344 17.3623C54.6334 17.7321 54.7818 18.0602 54.9797 18.3467C55.1829 18.6331 55.4355 18.8597 55.7376 19.0264C56.0396 19.1878 56.3912 19.2686 56.7922 19.2686C57.1881 19.2686 57.5344 19.1878 57.8313 19.0264C58.1334 18.8597 58.3834 18.6331 58.5813 18.3467C58.7792 18.0602 58.9277 17.7321 59.0266 17.3623C59.1308 16.9873 59.1829 16.5889 59.1829 16.167V15.9873C59.1829 15.5706 59.1308 15.1774 59.0266 14.8076C58.9277 14.4326 58.7766 14.1019 58.5735 13.8154C58.3756 13.5238 58.1256 13.2946 57.8235 13.1279C57.5266 12.9613 57.1777 12.8779 56.7766 12.8779C56.3808 12.8779 56.0318 12.9613 55.7297 13.1279C55.4329 13.2946 55.1829 13.5238 54.9797 13.8154C54.7818 14.1019 54.6334 14.4326 54.5344 14.8076C54.4355 15.1774 54.386 15.5706 54.386 15.9873ZM64.686 13.5264V20.2998H63.2329V11.8467H64.6079L64.686 13.5264ZM64.3891 15.7529L63.7172 15.7295C63.7225 15.1514 63.798 14.6175 63.9438 14.1279C64.0896 13.6331 64.3058 13.2035 64.5922 12.8389C64.8787 12.4743 65.2355 12.193 65.6626 11.9951C66.0896 11.792 66.5844 11.6904 67.1469 11.6904C67.5428 11.6904 67.9074 11.7477 68.2407 11.8623C68.574 11.9717 68.8631 12.1462 69.1079 12.3857C69.3527 12.6253 69.5428 12.9326 69.6782 13.3076C69.8136 13.6826 69.8813 14.1357 69.8813 14.667V20.2998H68.436V14.7373C68.436 14.2946 68.3605 13.9404 68.2094 13.6748C68.0636 13.4092 67.8553 13.2165 67.5844 13.0967C67.3136 12.9717 66.9959 12.9092 66.6313 12.9092C66.2042 12.9092 65.8475 12.9847 65.561 13.1357C65.2745 13.2868 65.0454 13.4951 64.8735 13.7607C64.7016 14.0264 64.5766 14.3311 64.4985 14.6748C64.4256 15.0133 64.3891 15.3727 64.3891 15.7529ZM69.8657 14.9561L68.8969 15.2529C68.9021 14.7894 68.9777 14.3441 69.1235 13.917C69.2745 13.4899 69.4907 13.1097 69.7719 12.7764C70.0584 12.443 70.41 12.18 70.8266 11.9873C71.2433 11.7894 71.7199 11.6904 72.2563 11.6904C72.7094 11.6904 73.1105 11.7503 73.4594 11.8701C73.8136 11.9899 74.1105 12.1748 74.3501 12.4248C74.5949 12.6696 74.7797 12.9847 74.9047 13.3701C75.0297 13.7555 75.0922 14.2139 75.0922 14.7451V20.2998H73.6391V14.7295C73.6391 14.2555 73.5636 13.8883 73.4126 13.6279C73.2667 13.3623 73.0584 13.1774 72.7876 13.0732C72.5219 12.9639 72.2042 12.9092 71.8344 12.9092C71.5167 12.9092 71.2355 12.9639 70.9907 13.0732C70.7459 13.1826 70.5402 13.3337 70.3735 13.5264C70.2068 13.7139 70.0792 13.93 69.9907 14.1748C69.9074 14.4196 69.8657 14.68 69.8657 14.9561ZM81.5876 20.4561C80.999 20.4561 80.4652 20.3571 79.986 20.1592C79.512 19.9561 79.1032 19.6722 78.7594 19.3076C78.4209 18.943 78.1605 18.5107 77.9782 18.0107C77.7959 17.5107 77.7048 16.9639 77.7048 16.3701V16.042C77.7048 15.3545 77.8063 14.7425 78.0094 14.2061C78.2126 13.6644 78.4886 13.2061 78.8376 12.8311C79.1865 12.4561 79.5824 12.1722 80.0251 11.9795C80.4678 11.7868 80.9261 11.6904 81.4001 11.6904C82.0042 11.6904 82.5251 11.7946 82.9626 12.0029C83.4053 12.2113 83.7673 12.5029 84.0485 12.8779C84.3298 13.2477 84.5381 13.6852 84.6735 14.1904C84.8089 14.6904 84.8766 15.2373 84.8766 15.8311V16.4795H78.5641V15.2998H83.4313V15.1904C83.4105 14.8154 83.3324 14.4508 83.1969 14.0967C83.0667 13.7425 82.8584 13.4508 82.5719 13.2217C82.2855 12.9925 81.8949 12.8779 81.4001 12.8779C81.0719 12.8779 80.7699 12.9482 80.4938 13.0889C80.2178 13.2243 79.9808 13.4274 79.7829 13.6982C79.585 13.9691 79.4313 14.2998 79.3219 14.6904C79.2126 15.0811 79.1579 15.5316 79.1579 16.042V16.3701C79.1579 16.7712 79.2126 17.1488 79.3219 17.5029C79.4365 17.8519 79.6006 18.1592 79.8141 18.4248C80.0329 18.6904 80.2959 18.8988 80.6032 19.0498C80.9157 19.2008 81.2699 19.2764 81.6657 19.2764C82.1761 19.2764 82.6084 19.1722 82.9626 18.9639C83.3167 18.7555 83.6266 18.4769 83.8923 18.1279L84.7673 18.8232C84.585 19.0993 84.3532 19.3623 84.0719 19.6123C83.7907 19.8623 83.4443 20.0654 83.0329 20.2217C82.6266 20.3779 82.1449 20.4561 81.5876 20.4561ZM92.286 18.0576C92.286 17.8493 92.2391 17.6566 92.1454 17.4795C92.0568 17.2972 91.8719 17.1331 91.5907 16.9873C91.3146 16.8363 90.898 16.7061 90.3407 16.5967C89.8719 16.4977 89.4475 16.3805 89.0672 16.2451C88.6922 16.1097 88.3719 15.9456 88.1063 15.7529C87.8459 15.5602 87.6454 15.3337 87.5047 15.0732C87.3641 14.8128 87.2938 14.5081 87.2938 14.1592C87.2938 13.8258 87.3667 13.5107 87.5126 13.2139C87.6636 12.917 87.8745 12.654 88.1454 12.4248C88.4214 12.1956 88.7521 12.016 89.1376 11.8857C89.523 11.7555 89.9527 11.6904 90.4266 11.6904C91.1037 11.6904 91.6818 11.8102 92.161 12.0498C92.6402 12.2894 93.0074 12.6097 93.2626 13.0107C93.5178 13.4066 93.6454 13.8467 93.6454 14.3311H92.2001C92.2001 14.0967 92.1297 13.8701 91.9891 13.6514C91.8537 13.4274 91.6532 13.2425 91.3876 13.0967C91.1271 12.9508 90.8068 12.8779 90.4266 12.8779C90.0256 12.8779 89.7001 12.9404 89.4501 13.0654C89.2053 13.1852 89.0256 13.3389 88.911 13.5264C88.8016 13.7139 88.7469 13.9118 88.7469 14.1201C88.7469 14.2764 88.773 14.417 88.8251 14.542C88.8824 14.6618 88.9813 14.7738 89.1219 14.8779C89.2626 14.9769 89.4605 15.0706 89.7157 15.1592C89.9709 15.2477 90.2964 15.3363 90.6922 15.4248C91.385 15.5811 91.9553 15.7686 92.4032 15.9873C92.8511 16.2061 93.1844 16.4743 93.4032 16.792C93.6219 17.1097 93.7313 17.4951 93.7313 17.9482C93.7313 18.318 93.6532 18.6566 93.4969 18.9639C93.3459 19.2712 93.1245 19.5368 92.8329 19.7607C92.5464 19.9795 92.2027 20.1514 91.8016 20.2764C91.4058 20.3962 90.9605 20.4561 90.4657 20.4561C89.7209 20.4561 89.0907 20.3232 88.5751 20.0576C88.0594 19.792 87.6688 19.4482 87.4032 19.0264C87.1376 18.6045 87.0047 18.1592 87.0047 17.6904H88.4579C88.4787 18.0863 88.5933 18.4014 88.8016 18.6357C89.01 18.8649 89.2652 19.029 89.5672 19.1279C89.8693 19.2217 90.1688 19.2686 90.4657 19.2686C90.8615 19.2686 91.1922 19.2165 91.4579 19.1123C91.7287 19.0081 91.9344 18.8649 92.0751 18.6826C92.2157 18.5003 92.286 18.292 92.286 18.0576ZM99.8126 19.2686C100.156 19.2686 100.474 19.1982 100.766 19.0576C101.057 18.917 101.297 18.7243 101.484 18.4795C101.672 18.2295 101.779 17.9456 101.805 17.6279H103.18C103.154 18.1279 102.984 18.5941 102.672 19.0264C102.365 19.4535 101.961 19.7998 101.461 20.0654C100.961 20.3258 100.412 20.4561 99.8126 20.4561C99.1771 20.4561 98.6225 20.3441 98.1485 20.1201C97.6797 19.8962 97.2891 19.5889 96.9766 19.1982C96.6693 18.8076 96.4376 18.3597 96.2813 17.8545C96.1303 17.3441 96.0547 16.805 96.0547 16.2373V15.9092C96.0547 15.3415 96.1303 14.805 96.2813 14.2998C96.4376 13.7894 96.6693 13.3389 96.9766 12.9482C97.2891 12.5576 97.6797 12.2503 98.1485 12.0264C98.6225 11.8024 99.1771 11.6904 99.8126 11.6904C100.474 11.6904 101.052 11.8258 101.547 12.0967C102.042 12.3623 102.43 12.7269 102.711 13.1904C102.997 13.6488 103.154 14.1696 103.18 14.7529H101.805C101.779 14.404 101.68 14.0889 101.508 13.8076C101.341 13.5264 101.112 13.3024 100.82 13.1357C100.534 12.9639 100.198 12.8779 99.8126 12.8779C99.3699 12.8779 98.9975 12.9665 98.6954 13.1436C98.3985 13.3154 98.1615 13.5498 97.9844 13.8467C97.8126 14.1383 97.6876 14.4639 97.6094 14.8232C97.5365 15.1774 97.5001 15.5394 97.5001 15.9092V16.2373C97.5001 16.6071 97.5365 16.9717 97.6094 17.3311C97.6824 17.6904 97.8047 18.016 97.9766 18.3076C98.1537 18.5993 98.3907 18.8337 98.6876 19.0107C98.9896 19.1826 99.3646 19.2686 99.8126 19.2686ZM107.05 8.2998V20.2998H105.605V8.2998H107.05ZM106.706 15.7529L106.105 15.7295C106.11 15.1514 106.196 14.6175 106.363 14.1279C106.529 13.6331 106.764 13.2035 107.066 12.8389C107.368 12.4743 107.727 12.193 108.144 11.9951C108.566 11.792 109.032 11.6904 109.542 11.6904C109.959 11.6904 110.334 11.7477 110.667 11.8623C111.001 11.9717 111.284 12.1488 111.519 12.3936C111.758 12.6383 111.941 12.9561 112.066 13.3467C112.191 13.7321 112.253 14.2035 112.253 14.7607V20.2998H110.8V14.7451C110.8 14.3024 110.735 13.9482 110.605 13.6826C110.475 13.4118 110.284 13.2165 110.034 13.0967C109.784 12.9717 109.477 12.9092 109.113 12.9092C108.753 12.9092 108.425 12.9847 108.128 13.1357C107.837 13.2868 107.584 13.4951 107.37 13.7607C107.162 14.0264 106.998 14.3311 106.878 14.6748C106.764 15.0133 106.706 15.3727 106.706 15.7529ZM114.834 16.167V15.9873C114.834 15.3779 114.923 14.8128 115.1 14.292C115.277 13.766 115.532 13.3102 115.866 12.9248C116.199 12.5342 116.603 12.2321 117.077 12.0186C117.551 11.7998 118.082 11.6904 118.67 11.6904C119.264 11.6904 119.798 11.7998 120.272 12.0186C120.751 12.2321 121.157 12.5342 121.491 12.9248C121.829 13.3102 122.087 13.766 122.264 14.292C122.441 14.8128 122.53 15.3779 122.53 15.9873V16.167C122.53 16.7764 122.441 17.3415 122.264 17.8623C122.087 18.3831 121.829 18.8389 121.491 19.2295C121.157 19.6149 120.754 19.917 120.28 20.1357C119.811 20.3493 119.28 20.4561 118.686 20.4561C118.092 20.4561 117.558 20.3493 117.084 20.1357C116.61 19.917 116.204 19.6149 115.866 19.2295C115.532 18.8389 115.277 18.3831 115.1 17.8623C114.923 17.3415 114.834 16.7764 114.834 16.167ZM116.28 15.9873V16.167C116.28 16.5889 116.329 16.9873 116.428 17.3623C116.527 17.7321 116.676 18.0602 116.873 18.3467C117.077 18.6331 117.329 18.8597 117.631 19.0264C117.933 19.1878 118.285 19.2686 118.686 19.2686C119.082 19.2686 119.428 19.1878 119.725 19.0264C120.027 18.8597 120.277 18.6331 120.475 18.3467C120.673 18.0602 120.821 17.7321 120.92 17.3623C121.025 16.9873 121.077 16.5889 121.077 16.167V15.9873C121.077 15.5706 121.025 15.1774 120.92 14.8076C120.821 14.4326 120.67 14.1019 120.467 13.8154C120.269 13.5238 120.019 13.2946 119.717 13.1279C119.42 12.9613 119.071 12.8779 118.67 12.8779C118.275 12.8779 117.926 12.9613 117.623 13.1279C117.327 13.2946 117.077 13.5238 116.873 13.8154C116.676 14.1019 116.527 14.4326 116.428 14.8076C116.329 15.1774 116.28 15.5706 116.28 15.9873ZM124.759 16.167V15.9873C124.759 15.3779 124.848 14.8128 125.025 14.292C125.202 13.766 125.457 13.3102 125.791 12.9248C126.124 12.5342 126.528 12.2321 127.002 12.0186C127.476 11.7998 128.007 11.6904 128.595 11.6904C129.189 11.6904 129.723 11.7998 130.197 12.0186C130.676 12.2321 131.082 12.5342 131.416 12.9248C131.754 13.3102 132.012 13.766 132.189 14.292C132.366 14.8128 132.455 15.3779 132.455 15.9873V16.167C132.455 16.7764 132.366 17.3415 132.189 17.8623C132.012 18.3831 131.754 18.8389 131.416 19.2295C131.082 19.6149 130.679 19.917 130.205 20.1357C129.736 20.3493 129.205 20.4561 128.611 20.4561C128.017 20.4561 127.483 20.3493 127.009 20.1357C126.535 19.917 126.129 19.6149 125.791 19.2295C125.457 18.8389 125.202 18.3831 125.025 17.8623C124.848 17.3415 124.759 16.7764 124.759 16.167ZM126.205 15.9873V16.167C126.205 16.5889 126.254 16.9873 126.353 17.3623C126.452 17.7321 126.601 18.0602 126.799 18.3467C127.002 18.6331 127.254 18.8597 127.556 19.0264C127.858 19.1878 128.21 19.2686 128.611 19.2686C129.007 19.2686 129.353 19.1878 129.65 19.0264C129.952 18.8597 130.202 18.6331 130.4 18.3467C130.598 18.0602 130.746 17.7321 130.845 17.3623C130.95 16.9873 131.002 16.5889 131.002 16.167V15.9873C131.002 15.5706 130.95 15.1774 130.845 14.8076C130.746 14.4326 130.595 14.1019 130.392 13.8154C130.194 13.5238 129.944 13.2946 129.642 13.1279C129.345 12.9613 128.996 12.8779 128.595 12.8779C128.2 12.8779 127.851 12.9613 127.549 13.1279C127.252 13.2946 127.002 13.5238 126.799 13.8154C126.601 14.1019 126.452 14.4326 126.353 14.8076C126.254 15.1774 126.205 15.5706 126.205 15.9873ZM136.638 8.2998V20.2998H135.184V8.2998H136.638ZM147.039 18.1904V20.2998H141.289V18.1904H147.039ZM142.266 8.9248V20.2998H139.523V8.9248H142.266ZM152.964 20.4561C152.277 20.4561 151.662 20.3493 151.12 20.1357C150.579 19.917 150.12 19.6175 149.745 19.2373C149.376 18.8571 149.092 18.4196 148.894 17.9248C148.701 17.43 148.605 16.9066 148.605 16.3545V16.0576C148.605 15.4378 148.691 14.8649 148.863 14.3389C149.034 13.8076 149.29 13.3441 149.628 12.9482C149.967 12.5524 150.391 12.2451 150.902 12.0264C151.412 11.8024 152.006 11.6904 152.683 11.6904C153.282 11.6904 153.818 11.7868 154.292 11.9795C154.766 12.1722 155.167 12.4482 155.495 12.8076C155.829 13.167 156.081 13.6019 156.253 14.1123C156.43 14.6227 156.519 15.1956 156.519 15.8311V16.9014H149.613V15.2529H153.949V15.0498C153.954 14.7686 153.904 14.529 153.8 14.3311C153.701 14.1331 153.555 13.9821 153.363 13.8779C153.17 13.7738 152.935 13.7217 152.659 13.7217C152.373 13.7217 152.136 13.7842 151.949 13.9092C151.766 14.0342 151.623 14.2061 151.519 14.4248C151.42 14.6383 151.35 14.8857 151.308 15.167C151.266 15.4482 151.245 15.7451 151.245 16.0576V16.3545C151.245 16.667 151.287 16.9508 151.37 17.2061C151.459 17.4613 151.584 17.68 151.745 17.8623C151.912 18.0394 152.11 18.1774 152.339 18.2764C152.574 18.3753 152.839 18.4248 153.136 18.4248C153.495 18.4248 153.85 18.3571 154.199 18.2217C154.547 18.0863 154.847 17.8623 155.097 17.5498L156.292 18.9717C156.12 19.2165 155.876 19.4535 155.558 19.6826C155.245 19.9118 154.87 20.0993 154.433 20.2451C153.995 20.3857 153.506 20.4561 152.964 20.4561ZM162.819 17.9248C162.819 17.779 162.769 17.654 162.67 17.5498C162.577 17.4404 162.41 17.3415 162.17 17.2529C161.931 17.1592 161.595 17.0654 161.163 16.9717C160.751 16.8831 160.363 16.766 159.998 16.6201C159.639 16.4743 159.324 16.2972 159.053 16.0889C158.782 15.8805 158.569 15.6331 158.413 15.3467C158.262 15.0602 158.186 14.7321 158.186 14.3623C158.186 14.0029 158.262 13.6644 158.413 13.3467C158.569 13.0238 158.795 12.7399 159.092 12.4951C159.394 12.2451 159.762 12.0498 160.194 11.9092C160.626 11.7633 161.118 11.6904 161.67 11.6904C162.431 11.6904 163.087 11.8076 163.639 12.042C164.191 12.2712 164.616 12.5941 164.913 13.0107C165.215 13.4222 165.366 13.8988 165.366 14.4404H162.733C162.733 14.2269 162.696 14.0446 162.623 13.8936C162.556 13.7425 162.444 13.6279 162.288 13.5498C162.131 13.4665 161.923 13.4248 161.663 13.4248C161.48 13.4248 161.314 13.4587 161.163 13.5264C161.017 13.5941 160.9 13.6878 160.811 13.8076C160.722 13.9274 160.678 14.068 160.678 14.2295C160.678 14.3441 160.704 14.4482 160.756 14.542C160.814 14.6305 160.9 14.7139 161.014 14.792C161.129 14.8649 161.275 14.9326 161.452 14.9951C161.629 15.0524 161.842 15.1045 162.092 15.1514C162.66 15.2555 163.191 15.404 163.686 15.5967C164.181 15.7894 164.582 16.0628 164.889 16.417C165.202 16.7712 165.358 17.2477 165.358 17.8467C165.358 18.2217 165.272 18.568 165.1 18.8857C164.928 19.1982 164.681 19.4743 164.358 19.7139C164.035 19.9482 163.647 20.1305 163.194 20.2607C162.741 20.391 162.23 20.4561 161.663 20.4561C160.855 20.4561 160.173 20.3128 159.616 20.0264C159.058 19.7347 158.637 19.3701 158.35 18.9326C158.069 18.4899 157.928 18.042 157.928 17.5889H160.381C160.392 17.8493 160.454 18.0628 160.569 18.2295C160.689 18.3962 160.847 18.5186 161.045 18.5967C161.243 18.6748 161.472 18.7139 161.733 18.7139C161.972 18.7139 162.17 18.68 162.327 18.6123C162.488 18.5446 162.61 18.4535 162.694 18.3389C162.777 18.2191 162.819 18.0811 162.819 17.9248ZM171.822 17.9248C171.822 17.779 171.772 17.654 171.674 17.5498C171.58 17.4404 171.413 17.3415 171.174 17.2529C170.934 17.1592 170.598 17.0654 170.166 16.9717C169.754 16.8831 169.366 16.766 169.002 16.6201C168.642 16.4743 168.327 16.2972 168.056 16.0889C167.785 15.8805 167.572 15.6331 167.416 15.3467C167.265 15.0602 167.189 14.7321 167.189 14.3623C167.189 14.0029 167.265 13.6644 167.416 13.3467C167.572 13.0238 167.799 12.7399 168.095 12.4951C168.397 12.2451 168.765 12.0498 169.197 11.9092C169.629 11.7633 170.121 11.6904 170.674 11.6904C171.434 11.6904 172.09 11.8076 172.642 12.042C173.194 12.2712 173.619 12.5941 173.916 13.0107C174.218 13.4222 174.369 13.8988 174.369 14.4404H171.736C171.736 14.2269 171.7 14.0446 171.627 13.8936C171.559 13.7425 171.447 13.6279 171.291 13.5498C171.134 13.4665 170.926 13.4248 170.666 13.4248C170.483 13.4248 170.317 13.4587 170.166 13.5264C170.02 13.5941 169.903 13.6878 169.814 13.8076C169.726 13.9274 169.681 14.068 169.681 14.2295C169.681 14.3441 169.707 14.4482 169.759 14.542C169.817 14.6305 169.903 14.7139 170.017 14.792C170.132 14.8649 170.278 14.9326 170.455 14.9951C170.632 15.0524 170.845 15.1045 171.095 15.1514C171.663 15.2555 172.194 15.404 172.689 15.5967C173.184 15.7894 173.585 16.0628 173.892 16.417C174.205 16.7712 174.361 17.2477 174.361 17.8467C174.361 18.2217 174.275 18.568 174.103 18.8857C173.931 19.1982 173.684 19.4743 173.361 19.7139C173.038 19.9482 172.65 20.1305 172.197 20.2607C171.744 20.391 171.233 20.4561 170.666 20.4561C169.858 20.4561 169.176 20.3128 168.619 20.0264C168.062 19.7347 167.64 19.3701 167.353 18.9326C167.072 18.4899 166.931 18.042 166.931 17.5889H169.384C169.395 17.8493 169.457 18.0628 169.572 18.2295C169.692 18.3962 169.851 18.5186 170.049 18.5967C170.246 18.6748 170.476 18.7139 170.736 18.7139C170.976 18.7139 171.174 18.68 171.33 18.6123C171.491 18.5446 171.614 18.4535 171.697 18.3389C171.78 18.2191 171.822 18.0811 171.822 17.9248ZM176.067 16.1592V15.9951C176.067 15.3753 176.156 14.805 176.333 14.2842C176.51 13.7581 176.77 13.3024 177.114 12.917C177.458 12.5316 177.882 12.2321 178.388 12.0186C178.893 11.7998 179.476 11.6904 180.138 11.6904C180.804 11.6904 181.39 11.7998 181.895 12.0186C182.406 12.2321 182.833 12.5316 183.177 12.917C183.52 13.3024 183.781 13.7581 183.958 14.2842C184.135 14.805 184.223 15.3753 184.223 15.9951V16.1592C184.223 16.7738 184.135 17.3441 183.958 17.8701C183.781 18.391 183.52 18.8467 183.177 19.2373C182.833 19.6227 182.408 19.9222 181.903 20.1357C181.398 20.3493 180.815 20.4561 180.153 20.4561C179.492 20.4561 178.906 20.3493 178.395 20.1357C177.885 19.9222 177.458 19.6227 177.114 19.2373C176.77 18.8467 176.51 18.391 176.333 17.8701C176.156 17.3441 176.067 16.7738 176.067 16.1592ZM178.7 15.9951V16.1592C178.7 16.4769 178.723 16.7738 178.77 17.0498C178.817 17.3258 178.895 17.568 179.005 17.7764C179.114 17.9795 179.263 18.1383 179.45 18.2529C179.638 18.3675 179.872 18.4248 180.153 18.4248C180.429 18.4248 180.658 18.3675 180.841 18.2529C181.028 18.1383 181.177 17.9795 181.286 17.7764C181.395 17.568 181.473 17.3258 181.52 17.0498C181.567 16.7738 181.591 16.4769 181.591 16.1592V15.9951C181.591 15.6878 181.567 15.3988 181.52 15.1279C181.473 14.8519 181.395 14.6097 181.286 14.4014C181.177 14.1878 181.028 14.0212 180.841 13.9014C180.653 13.7816 180.419 13.7217 180.138 13.7217C179.862 13.7217 179.63 13.7816 179.442 13.9014C179.26 14.0212 179.114 14.1878 179.005 14.4014C178.895 14.6097 178.817 14.8519 178.77 15.1279C178.723 15.3988 178.7 15.6878 178.7 15.9951ZM188.781 13.6514V20.2998H186.148V11.8467H188.617L188.781 13.6514ZM188.469 15.7842L187.852 15.7998C187.852 15.154 187.93 14.5785 188.086 14.0732C188.242 13.5628 188.464 13.1305 188.75 12.7764C189.037 12.4222 189.378 12.154 189.773 11.9717C190.175 11.7842 190.62 11.6904 191.109 11.6904C191.5 11.6904 191.857 11.7477 192.18 11.8623C192.508 11.9769 192.789 12.1618 193.023 12.417C193.263 12.6722 193.445 13.0107 193.57 13.4326C193.701 13.8493 193.766 14.3649 193.766 14.9795V20.2998H191.117V14.9717C191.117 14.6331 191.07 14.3753 190.977 14.1982C190.883 14.016 190.747 13.891 190.57 13.8232C190.393 13.7555 190.177 13.7217 189.922 13.7217C189.651 13.7217 189.422 13.7738 189.234 13.8779C189.047 13.9821 188.896 14.1279 188.781 14.3154C188.672 14.4977 188.591 14.7139 188.539 14.9639C188.492 15.2139 188.469 15.4873 188.469 15.7842ZM203.816 13.4404V15.5498H197.98V13.4404H203.816ZM198.894 8.9248V20.2998H196.152V8.9248H198.894ZM205.659 8.9248V20.2998H202.925V8.9248H205.659ZM213.014 18.2451V11.8467H215.655V20.2998H213.186L213.014 18.2451ZM213.264 16.5264L213.952 16.5107C213.952 17.0785 213.884 17.6045 213.749 18.0889C213.613 18.568 213.413 18.9847 213.147 19.3389C212.887 19.693 212.564 19.9691 212.178 20.167C211.798 20.3597 211.358 20.4561 210.858 20.4561C210.441 20.4561 210.058 20.3988 209.709 20.2842C209.366 20.1644 209.069 19.9795 208.819 19.7295C208.569 19.4743 208.374 19.1488 208.233 18.7529C208.097 18.3519 208.03 17.8727 208.03 17.3154V11.8467H210.663V17.3311C210.663 17.5186 210.686 17.68 210.733 17.8154C210.78 17.9508 210.847 18.0654 210.936 18.1592C211.025 18.2477 211.134 18.3154 211.264 18.3623C211.4 18.404 211.553 18.4248 211.725 18.4248C212.121 18.4248 212.431 18.3415 212.655 18.1748C212.879 18.0081 213.035 17.7816 213.124 17.4951C213.217 17.2087 213.264 16.8857 213.264 16.5264ZM217.931 8.2998H220.564V18.2217L220.291 20.2998H217.931V8.2998ZM225.752 15.9795V16.1436C225.752 16.7842 225.687 17.3675 225.556 17.8936C225.426 18.4196 225.226 18.8753 224.955 19.2607C224.684 19.641 224.343 19.9352 223.931 20.1436C223.52 20.3519 223.033 20.4561 222.47 20.4561C221.96 20.4561 221.522 20.3467 221.158 20.1279C220.793 19.904 220.489 19.5967 220.244 19.2061C219.999 18.8102 219.801 18.3545 219.65 17.8389C219.499 17.318 219.379 16.7607 219.291 16.167V15.9717C219.379 15.3831 219.499 14.8311 219.65 14.3154C219.801 13.7946 219.999 13.3389 220.244 12.9482C220.489 12.5524 220.791 12.2451 221.15 12.0264C221.515 11.8024 221.95 11.6904 222.455 11.6904C223.022 11.6904 223.512 11.7972 223.923 12.0107C224.34 12.2243 224.684 12.5238 224.955 12.9092C225.226 13.2946 225.426 13.7477 225.556 14.2686C225.687 14.7894 225.752 15.3597 225.752 15.9795ZM223.119 16.1436V15.9795C223.119 15.6722 223.101 15.3831 223.064 15.1123C223.028 14.8415 222.963 14.6019 222.869 14.3936C222.775 14.1852 222.642 14.0212 222.47 13.9014C222.298 13.7816 222.075 13.7217 221.798 13.7217C221.517 13.7217 221.28 13.7686 221.088 13.8623C220.9 13.9561 220.749 14.0915 220.634 14.2686C220.525 14.4404 220.447 14.654 220.4 14.9092C220.353 15.1592 220.332 15.443 220.338 15.7607V16.3779C220.327 16.8102 220.366 17.18 220.455 17.4873C220.543 17.7946 220.697 18.029 220.916 18.1904C221.134 18.3519 221.434 18.4326 221.814 18.4326C222.095 18.4326 222.322 18.3779 222.494 18.2686C222.671 18.1592 222.804 18.0029 222.892 17.7998C222.981 17.5967 223.041 17.3545 223.072 17.0732C223.103 16.792 223.119 16.4821 223.119 16.1436Z" fill="black"/>
</svg>
